HIERARCHY
ROOT Hips
{
	OFFSET 0.00000 0.00000 0.00000
	CHANNELS 6 Xposition Yposition Zposition Zrotation Yrotation Xrotation 
	JOINT LHipJoint
	{
		OFFSET 0 0 0
		CHANNELS 3 Zrotation Yrotation Xrotation
		JOINT LeftHip
		{
			OFFSET 1.38280 -1.96574 0.54427
			CHANNELS 3 Zrotation Yrotation Xrotation
			JOINT LeftKnee
			{
				OFFSET 2.72096 -7.47578 0.00000
				CHANNELS 3 Zrotation Yrotation Xrotation
				JOINT LeftAnkle
				{
					OFFSET 2.73041 -7.50176 0.00000
					CHANNELS 3 Zrotation Yrotation Xrotation
					JOINT LeftToe
					{
						OFFSET 0.16150 -0.44371 2.18031
						CHANNELS 3 Zrotation Yrotation Xrotation
						End Site
						{
							OFFSET 0.00000 -0.00000 1.12127
						}
					}
				}
			}
		}
	}
	JOINT RHipJoint
	{
		OFFSET 0 0 0
		CHANNELS 3 Zrotation Yrotation Xrotation
		JOINT RightHip
		{
			OFFSET -1.57224 -1.96575 0.54427
			CHANNELS 3 Zrotation Yrotation Xrotation
			JOINT RightKnee
			{
				OFFSET -2.95935 -8.13076 0.00000
				CHANNELS 3 Zrotation Yrotation Xrotation
				JOINT RightAnkle
				{
					OFFSET -2.52345 -6.93311 0.00000
					CHANNELS 3 Zrotation Yrotation Xrotation
					JOINT RightToe
					{
						OFFSET -0.04475 -0.10171 1.86688
						CHANNELS 3 Zrotation Yrotation Xrotation
						End Site
						{
							OFFSET -0.00000 -0.00000 0.95157
						}
					}
				}
			}
		}
	}
	JOINT lowerback
	{
		OFFSET 0 0 0
		CHANNELS 3 Zrotation Yrotation Xrotation
		JOINT Chest
		{
			OFFSET 0.00669 2.07367 0.09104
			CHANNELS 3 Zrotation Yrotation Xrotation
			JOINT Chest2
			{
				OFFSET -0.00664 2.06198 -0.04732
				CHANNELS 3 Zrotation Yrotation Xrotation
				JOINT lowerneck
				{
					OFFSET 0 0 0
					CHANNELS 3 Zrotation Yrotation Xrotation
					JOINT Neck
					{
						OFFSET -0.00021 1.49948 0.16345
						CHANNELS 3 Zrotation Yrotation Xrotation
						JOINT Head
						{
							OFFSET 0.06080 1.50567 -0.26702
							CHANNELS 3 Zrotation Yrotation Xrotation
							End Site
							{
								OFFSET 0.01726 1.56470 -0.11854
							}
						}
					}
				}
				JOINT LeftCollar
				{
					OFFSET 0 0 0
					CHANNELS 3 Zrotation Yrotation Xrotation
					JOINT LeftShoulder
					{
						OFFSET 3.14993 0.82932 -0.22488
CHANNELS 3 Zrotation Xrotation Yrotation
						JOINT LeftElbow
						{
OFFSET 0 -5.682360 -0.000000
CHANNELS 3 Zrotation Xrotation Yrotation
							JOINT LeftWrist
							{
OFFSET 0 -3.171120 0.000000
CHANNELS 3 Zrotation Xrotation Yrotation
								JOINT lhand
								{
									OFFSET 0 0 0
CHANNELS 3 Zrotation Xrotation Yrotation
									JOINT LFingers
									{
OFFSET 0 -0.632690 0.000000
CHANNELS 3 Zrotation Xrotation Yrotation
										End Site
										{
OFFSET 0 -0.510090 0.000000
										}
									}
								}
								JOINT LThumb
								{
OFFSET 0 0.000000 0.000000
CHANNELS 3 Zrotation Xrotation Yrotation
									End Site
									{
OFFSET 0 -0.517880 0.517880
									}
								}
							}
						}
					}
				}
				JOINT RightCollar
				{
					OFFSET 0 0 0
					CHANNELS 3 Zrotation Yrotation Xrotation
					JOINT RightShoulder
					{
						OFFSET -3.10571 0.91279 -0.33334
CHANNELS 3 Zrotation Xrotation Yrotation
						JOINT RightElbow
						{
OFFSET 0 -5.871200 -0.000000
CHANNELS 3 Zrotation Xrotation Yrotation
							JOINT RightWrist
							{
OFFSET 0 -3.375890 0.000000
CHANNELS 3 Zrotation Xrotation Yrotation
								JOINT rhand
								{
									OFFSET 0 0 0
CHANNELS 3 Zrotation Xrotation Yrotation
									JOINT RFingers
									{
OFFSET 0 -0.603260 0.000000
CHANNELS 3 Zrotation Xrotation Yrotation
										End Site
										{
OFFSET 0 -0.486360 0.000000
										}
									}
								}
								JOINT RThumb
								{
OFFSET 0 0.000000 0.000000
CHANNELS 3 Zrotation Xrotation Yrotation
									End Site
									{
OFFSET 0 -0.493790 0.493790
									}
								}
							}
						}
					}
				}
			}
		}
	}
}
MOTION
Frames: 11
Frame Time: .0083333
20.9613 18.6016 -2.2925 1268.3800 261.8370 -1258.6400 0.0000 0.0000 0.0000 -18.7722 -10.4474 -15.7082 1.5507 7.8597 22.2889 1.2429 0.7046 -21.3408 0.0210 -0.9345 -2.5687 0.0000 0.0000 0.0000 16.1465 16.1622 -12.2142 -1.6644 -8.1290 23.1067 -0.8212 9.5404 -16.5053 -3.9747 -12.1267 36.1816 -1.1924 -3.3872 -9.6634 2.2857 -4.5723 2.4795 2.3196 -2.3567 8.3440 -6.6498 -1.3190 -17.5746 2.5801 -0.8756 24.1401 1.9025 -0.8040 10.7229 -0.0000 0.0000 0.0000 -2.3913 -40.7295 -53.4668 18.3139 -28.5573 4.6983 19.0012 -10.0118 -40.6594 0.0 0.0 0.0 -7.1250 0.0 0.0 -26.0128 70.6816 16.2954 -0.0000 0.0000 0.0000 -9.1701 -0.7957 33.2624 -34.5130 -44.4612 -14.4712 -34.5509 -27.5879 -24.0104 0.0 0.0 0.0 7.1250 0.0 -0.0 -3.1665 1.6116 -3.081
20.9458 18.6021 -2.3053 1268.5000 262.0200 -1258.8200 0.0000 0.0000 0.0000 -18.7507 -10.3116 -15.5690 1.5453 7.8466 22.2492 1.2574 0.7275 -21.4720 0.0223 -0.9647 -2.6516 0.0000 0.0000 0.0000 16.2222 16.0008 -12.1732 -1.6653 -8.1310 23.1128 -0.7881 9.5474 -16.2027 -3.9661 -12.1151 36.1404 -1.1698 -3.3629 -9.6116 2.0394 -4.5198 2.4739 2.0584 -2.3212 8.2810 -6.4910 -1.2779 -17.6652 2.8874 -0.9365 24.1102 1.9784 -0.7768 10.7305 0.0000 0.0000 0.0000 -2.0591 -38.083 -52.3264 17.9184 -28.0525 4.5108 20.563 -9.2412 -40.3592 0.0 0.0 0.0 -7.1250 0.0 0.0 -23.6153 70.9436 14.8718 0.0000 0.0000 0.0000 -8.2519 -0.438 33.8899 -33.8413 -43.9668 -14.0028 -34.5783 -27.1238 -24.4519 0.0 0.0 0.0 7.1250 0.0 -0.0 -3.1003 1.1064 -3.0444
20.9292 18.6029 -2.3177 1268.5900 262.2250 -1258.9600 0.0000 0.0000 0.0000 -18.7214 -10.1498 -15.4572 1.5408 7.8357 22.2161 1.2705 0.7549 -21.5930 0.0252 -1.0252 -2.8182 0.0000 0.0000 0.0000 16.3019 15.8783 -12.1356 -1.6654 -8.1312 23.1133 -0.7572 9.5625 -15.9185 -3.9547 -12.0998 36.0861 -1.1550 -3.3189 -9.5822 1.8011 -4.4411 2.4657 1.8136 -2.2738 8.2288 -6.3306 -1.2469 -17.7260 3.1954 -1.0158 24.0695 2.0515 -0.7579 10.7299 0.0000 -0.0000 0.0000 -1.6789 -35.4404 -51.2405 17.5317 -27.5534 4.3304 22.1474 -8.4591 -40.1244 0.0 0.0 0.0 -7.1250 0.0 0.0 -21.2463 71.2683 13.4855 0.0000 -0.0000 0.0000 -7.3397 -0.0755 34.3793 -33.1325 -43.4316 -13.513 -34.8303 -26.5949 -24.9155 0.0 0.0 0.0 7.1250 0.0 -0.0 -3.1621 0.5141 -3.1384
20.9121 18.6034 -2.3299 1268.6800 262.4460 -1259.1000 0.0000 0.0000 0.0000 -18.6901 -9.9695 -15.3637 1.5373 7.8273 22.1908 1.2837 0.7615 -21.7062 0.0275 -1.0713 -2.9450 0.0000 0.0000 0.0000 16.3822 15.7783 -12.1018 -1.6649 -8.1300 23.1097 -0.7276 9.5834 -15.6441 -3.9425 -12.0835 36.0281 -1.1543 -3.2577 -9.5763 1.5790 -4.3396 2.4627 1.5966 -2.2168 8.1982 -6.1866 -1.2323 -17.7670 3.4911 -1.1116 24.0166 2.1203 -0.7499 10.7224 0.0000 -0.0000 0.0000 -1.3018 -32.8149 -50.1239 17.1497 -27.0547 4.1552 23.5397 -7.5929 -39.9209 0.0 0.0 0.0 -7.1250 0.0 0.0 -19.1220 71.5558 12.2249 0.0000 -0.0000 0.0000 -6.4638 0.2933 34.7493 -32.4370 -42.8928 -13.0373 -35.1943 -26.0207 -25.2868 0.0 0.0 0.0 7.1250 0.0 -0.0 -3.3052 -0.0078 -3.3112
20.8947 18.6035 -2.3419 1268.7800 262.6800 -1259.2300 0.0000 0.0000 0.0000 -18.6558 -9.8049 -15.2704 1.5346 7.8208 22.1712 1.3000 0.7530 -21.8391 0.0281 -1.0818 -2.9739 0.0000 0.0000 0.0000 16.4623 15.6829 -12.0773 -1.6642 -8.1285 23.1052 -0.6978 9.6035 -15.3628 -3.9321 -12.0695 35.9784 -1.1565 -3.1785 -9.5897 1.3735 -4.2155 2.4627 1.4014 -2.1498 8.1837 -6.0859 -1.2386 -17.7928 3.7769 -1.2231 23.9637 2.1904 -0.7547 10.7138 0.0000 -0.0000 0.0000 -0.9402 -30.2179 -48.9027 16.7683 -26.5513 3.9832 24.6833 -6.6364 -39.6596 0.0 0.0 0.0 -7.1250 0.0 0.0 -17.1998 71.7045 11.0287 0.0000 -0.0000 0.0000 -5.6414 0.6847 35.0179 -31.7881 -42.3776 -12.5978 -35.4915 -25.3594 -25.4893 0.0 0.0 0.0 7.1250 0.0 -0.0 -3.4402 -0.3224 -3.4658
20.8769 18.6030 -2.3539 1268.9200 262.9200 -1259.4000 0.0000 0.0000 0.0000 -18.6231 -9.6810 -15.1604 1.5326 7.8158 22.1560 1.3215 0.7450 -22.0137 0.0269 -1.0581 -2.9087 0.0000 0.0000 0.0000 16.5383 15.5908 -12.0534 -1.6636 -8.1270 23.1006 -0.6680 9.6225 -15.0788 -3.9245 -12.0592 35.9417 -1.1535 -3.0790 -9.6159 1.1773 -4.0660 2.4634 1.2168 -2.0705 8.1777 -6.0500 -1.2700 -17.8109 4.0674 -1.3535 23.9253 2.2706 -0.7742 10.7113 -0.0000 0.0000 0.0000 -0.5996 -27.6598 -47.499 16.3807 -26.0341 3.8115 25.5814 -5.6358 -39.2389 0.0 0.0 0.0 -7.1250 0.0 0.0 -15.3636 71.6177 9.8044 -0.0000 0.0000 0.0000 -4.8676 1.104 35.1792 -31.1849 -41.8877 -12.1931 -35.6144 -24.5776 -25.5421 0.0 0.0 0.0 7.1250 0.0 -0.0 -3.5019 -0.418 -3.5339
20.8585 18.6023 -2.3657 1269.0600 263.1670 -1259.5800 0.0000 0.0000 0.0000 -18.5887 -9.6204 -15.0286 1.5315 7.8132 22.1480 1.3500 0.7554 -22.2511 0.0245 -1.0114 -2.7803 0.0000 0.0000 0.0000 16.6125 15.5108 -12.0245 -1.6624 -8.1243 23.0922 -0.6394 9.6420 -14.8017 -3.9185 -12.0511 35.9130 -1.1419 -2.9595 -9.6565 0.9898 -3.8916 2.4655 1.0400 -1.9792 8.1820 -6.0734 -1.3238 -17.8302 4.3605 -1.4993 23.9013 2.3597 -0.8063 10.7164 -0.0000 0.0000 0.0000 -0.2986 -25.1457 -45.8167 15.9858 -25.5014 3.6398 26.2484 -4.6488 -38.6141 0.0 0.0 0.0 -7.1250 0.0 0.0 -13.5888 71.2517 8.5492 -0.0000 0.0000 0.0000 -4.1307 1.536 35.2183 -30.6151 -41.4148 -11.8144 -35.5315 -23.7021 -25.5086 0.0 0.0 0.0 7.1250 0.0 -0.0 -3.4599 -0.3559 -3.4877
20.8399 18.6017 -2.3769 1268.9900 263.4310 -1259.5100 0.0000 0.0000 0.0000 -18.5187 -9.6416 -14.9065 1.5326 7.8158 22.1561 1.3873 0.7979 -22.5692 0.0214 -0.9453 -2.5984 0.0000 0.0000 0.0000 16.7063 15.4492 -12.0189 -1.6594 -8.1175 23.0714 -0.6104 9.6507 -14.5148 -3.9111 -12.0411 35.8776 -1.1004 -2.8167 -9.7288 0.8225 -3.6915 2.4646 0.8707 -1.8744 8.2012 -6.1206 -1.3914 -17.8505 4.6287 -1.6503 23.8723 2.4430 -0.8459 10.7209 -0.0000 0.0000 0.0000 -0.0576 -22.6718 -43.7876 15.6002 -24.9755 3.4754 26.7337 -3.7336 -37.8301 0.0 0.0 0.0 -7.1250 0.0 0.0 -11.9304 70.6601 7.3401 -0.0000 0.0000 0.0000 -3.4232 1.9556 35.1212 -30.0682 -40.9518 -11.4543 -35.3303 -22.8212 -25.4302 0.0 0.0 0.0 7.1250 0.0 -0.0 -3.3570 -0.2087 -3.375
20.8219 18.6014 -2.3868 1268.5100 263.7140 -1258.9800 0.0000 0.0000 0.0000 -18.3905 -9.7318 -14.8375 1.5378 7.8285 22.1943 1.4323 0.8563 -22.9500 0.0173 -0.8480 -2.3308 0.0000 0.0000 0.0000 16.8315 15.3952 -12.0664 -1.6531 -8.1027 23.0264 -0.5793 9.6321 -14.1954 -3.8998 -12.0258 35.8233 -1.0107 -2.6459 -9.8408 0.6833 -3.4622 2.4530 0.7076 -1.7539 8.2315 -6.1579 -1.4706 -17.8461 4.8459 -1.8063 23.8066 2.5049 -0.8927 10.7078 0.0000 0.0000 0.0000 0.1141 -20.2276 -41.422 15.2520 -24.496 3.3297 27.1057 -2.9752 -36.9939 0.0 0.0 0.0 -7.1250 0.0 0.0 -10.4589 69.9669 6.2666 0.0000 0.0000 0.0000 -2.7387 2.3535 34.8701 -29.5395 -40.4954 -11.1094 -35.1528 -22.0409 -25.3244 0.0 0.0 0.0 7.1250 0.0 -0.0 -3.2734 -0.038 -3.2809
20.8052 18.6010 -2.3951 1267.5000 263.9930 -1257.8800 0.0000 0.0000 0.0000 -18.2014 -9.8658 -14.8335 1.5481 7.8535 22.2699 1.4814 0.9032 -23.3537 0.0124 -0.7180 -1.9732 0.0000 0.0000 0.0000 16.9923 15.3319 -12.1633 -1.6428 -8.0787 22.9532 -0.5472 9.5821 -13.8510 -3.8843 -12.0048 35.7491 -0.8701 -2.4486 -9.9713 0.5780 -3.2068 2.4232 0.5564 -1.6191 8.2534 -6.1822 -1.5644 -17.7794 5.0061 -1.9722 23.6889 2.5413 -0.9500 10.6641 0.0000 0.0000 0.0000 0.2123 -17.8031 -38.7838 14.9618 -24.0929 3.2103 27.416 -2.4714 -36.2166 0.0 0.0 0.0 -7.1250 0.0 0.0 -9.2217 69.2995 5.383 0.0000 0.0000 0.0000 -2.086 2.7519 34.4635 -29.0351 -40.0518 -10.7833 -35.0659 -21.4333 -25.2043 0.0 0.0 0.0 7.1250 0.0 -0.0 -3.2456 0.1221 -3.2439
20.7904 18.6000 -2.4019 1265.9200 264.2410 -1256.1900 0.0000 0.0000 0.0000 -17.9562 -10.0292 -14.8851 1.5629 7.8892 22.3779 1.5306 0.9357 -23.7453 0.0080 -0.5768 -1.5849 0.0000 0.0000 0.0000 17.1899 15.2523 -12.2951 -1.6297 -8.0481 22.8602 -0.5163 9.5068 -13.5048 -3.8652 -11.9788 35.6569 -0.6880 -2.2318 -10.0883 0.5136 -2.9344 2.3681 0.4297 -1.4753 8.2421 -6.2166 -1.6739 -17.6344 5.1219 -2.1490 23.5356 2.5612 -1.0195 10.5933 0.0000 0.0000 0.0000 0.2374 -15.3971 -35.9304 14.7353 -23.7761 3.1184 27.6981 -2.2688 -35.5931 0.0 0.0 0.0 -7.1250 0.0 0.0 -8.2366 68.767 4.7063 0.0000 0.0000 0.0000 -1.4894 3.1771 33.9221 -28.5612 -39.6277 -10.4797 -35.0798 -21.0135 -25.1051 0.0 0.0 0.0 7.1250 0.0 -0.0 -3.2731 0.2297 -3.2653
